<?xml version="1.0" standalone="no"?>
<!DOCTYPE svg PUBLIC "-//W3C//DTD SVG 20010904//EN"
 "http://www.w3.org/TR/2001/REC-SVG-20010904/DTD/svg10.dtd">
<svg version="1.0" xmlns="http://www.w3.org/2000/svg"
 width="700.000000pt" height="700.000000pt" viewBox="0 0 700.000000 700.000000"
 preserveAspectRatio="xMidYMid meet">
<metadata>
Created by potrace 1.11, written by Peter Selinger 2001-2013
</metadata>
<g transform="translate(0.000000,700.000000) scale(0.100000,-0.100000)"
fill="#000000" stroke="none">
<path d="M4073 5049 c-9 -3 -52 -75 -95 -160 -155 -300 -271 -526 -343 -664
-112 -216 -234 -454 -328 -635 -46 -91 -118 -230 -159 -310 -42 -80 -119 -230
-173 -335 -54 -104 -126 -244 -160 -310 -34 -66 -106 -205 -160 -310 -54 -104
-120 -232 -146 -282 l-48 -93 42 -1 c186 -2 432 2 438 8 3 5 57 107 119 228
124 242 222 432 340 660 43 83 119 231 170 330 51 99 123 239 160 310 84 161
196 379 330 640 57 110 126 245 155 300 29 55 110 213 180 350 70 138 132 256
138 263 11 14 25 13 -256 15 -103 1 -195 -1 -204 -4z"/>
<path d="M2090 4353 c-53 -24 -65 -29 -480 -191 -212 -83 -529 -208 -705 -277
-176 -69 -354 -139 -396 -156 l-76 -29 1 -232 1 -233 180 -71 c248 -98 714
-281 1055 -414 157 -62 305 -120 330 -130 25 -10 68 -27 95 -38 l50 -20 0 234
c0 199 -2 235 -15 240 -21 8 -517 188 -800 291 -336 121 -383 140 -374 145 5
3 275 101 599 218 l590 213 -1 226 c-1 124 -2 229 -3 234 -1 10 -11 8 -51 -10z"/>
<path d="M4855 4138 l0 -233 50 -18 c28 -10 59 -22 70 -27 11 -5 135 -50 275
-100 140 -51 314 -113 385 -140 72 -26 191 -69 265 -95 74 -27 138 -51 143
-55 4 -3 -17 -14 -45 -24 -29 -10 -69 -24 -88 -32 -19 -7 -258 -94 -530 -193
-272 -99 -502 -182 -510 -185 -13 -5 -15 -40 -15 -236 0 -138 4 -230 9 -230 6
0 98 35 205 77 108 43 198 78 201 79 3 0 14 4 25 9 11 5 137 54 280 110 342
135 590 232 810 319 l180 71 1 232 0 232 -220 86 c-122 48 -230 90 -241 95
-38 17 -417 166 -850 334 -137 54 -259 102 -270 107 -23 10 -125 49 -128 49
-1 0 -2 -105 -2 -232z"/>
</g>
</svg>
