<?xml version="1.0" standalone="no"?>
<!DOCTYPE svg PUBLIC "-//W3C//DTD SVG 20010904//EN"
 "http://www.w3.org/TR/2001/REC-SVG-20010904/DTD/svg10.dtd">
<svg version="1.0" xmlns="http://www.w3.org/2000/svg"
 width="700.000000pt" height="700.000000pt" viewBox="0 0 700.000000 700.000000"
 preserveAspectRatio="xMidYMid meet">
<metadata>
Created by potrace 1.11, written by Peter Selinger 2001-2013
</metadata>
<g transform="translate(0.000000,700.000000) scale(0.100000,-0.100000)"
fill="#000000" stroke="none">
<path d="M3327 6964 c-1 -1 -42 -5 -92 -8 -99 -7 -125 -10 -265 -32 -148 -22
-157 -24 -303 -60 -264 -65 -470 -142 -717 -265 -901 -450 -1565 -1275 -1809
-2246 -21 -87 -42 -176 -45 -198 -4 -22 -11 -66 -17 -97 -5 -32 -12 -77 -14
-100 -3 -24 -7 -52 -9 -64 -24 -121 -25 -688 -1 -784 2 -8 7 -42 10 -75 4 -33
8 -67 10 -75 3 -8 7 -33 11 -55 20 -127 87 -396 125 -502 88 -245 182 -454
276 -617 44 -77 190 -305 202 -316 3 -3 35 -43 70 -90 496 -655 1276 -1134
2096 -1285 50 -10 98 -19 109 -21 10 -2 44 -6 75 -9 31 -4 67 -8 80 -10 144
-23 639 -24 758 -1 12 3 48 7 80 11 71 7 213 33 337 60 217 48 468 138 704
251 74 35 137 64 140 64 3 0 13 6 21 14 9 7 42 27 73 44 81 44 273 170 354
233 451 349 786 756 1024 1244 183 377 267 657 334 1125 11 78 20 264 19 415
0 147 -11 363 -18 375 -2 3 -6 37 -10 75 -4 39 -9 72 -10 75 -2 3 -6 26 -10
50 -8 58 -64 310 -71 321 -3 5 -7 21 -10 35 -9 51 -93 291 -139 399 -458 1074
-1405 1841 -2545 2060 -47 9 -98 18 -115 20 -16 3 -46 7 -65 9 -139 21 -252
28 -463 30 -98 1 -179 1 -180 0z"/>
</g>
</svg>
